<svg width="27" height="27" viewBox="0 0 27 27" fill="none" xmlns="http://www.w3.org/2000/svg">
<g id="vuesax/linear/setting">
<g id="setting">
<path id="Vector" d="M3.26733 10.5694V16.8536C3.26733 19.1625 3.26733 19.1625 5.44555 20.6328L11.4357 24.0962C12.3396 24.6189 13.8099 24.6189 14.703 24.0962L20.6931 20.6328C22.8713 19.1625 22.8713 19.1625 22.8713 16.8645V10.5694C22.8713 8.27142 22.8713 8.27142 20.6931 6.80112L14.703 3.33776C13.8099 2.81499 12.3396 2.81499 11.4357 3.33776L5.44555 6.80112C3.26733 8.27142 3.26733 8.27142 3.26733 10.5694Z" stroke="#8B8C91" stroke-width="1.63366" stroke-linecap="round" stroke-linejoin="round"/>
<path id="Vector_2" d="M13.0693 16.9844C14.8738 16.9844 16.3367 15.5215 16.3367 13.717C16.3367 11.9125 14.8738 10.4497 13.0693 10.4497C11.2648 10.4497 9.802 11.9125 9.802 13.717C9.802 15.5215 11.2648 16.9844 13.0693 16.9844Z" stroke="#8B8C91" stroke-width="1.63366" stroke-linecap="round" stroke-linejoin="round"/>
</g>
</g>
</svg>
