<svg width="29" height="28" viewBox="0 0 29 28" fill="none" xmlns="http://www.w3.org/2000/svg">
<g id="vuesax/bulk/shopping-cart">
<g id="shopping-cart">
<path id="Vector" d="M19.3353 26.192C20.4304 26.192 21.3181 25.3043 21.3181 24.2092C21.3181 23.1142 20.4304 22.2264 19.3353 22.2264C18.2403 22.2264 17.3525 23.1142 17.3525 24.2092C17.3525 25.3043 18.2403 26.192 19.3353 26.192Z" fill="white"/>
<path id="Vector_2" d="M10.2711 26.192C11.3662 26.192 12.2539 25.3043 12.2539 24.2092C12.2539 23.1142 11.3662 22.2264 10.2711 22.2264C9.17607 22.2264 8.28835 23.1142 8.28835 24.2092C8.28835 25.3043 9.17607 26.192 10.2711 26.192Z" fill="white"/>
<path id="Vector_3" opacity="0.4" d="M6.40752 5.16313L6.18092 7.93903C6.1356 8.47156 6.55482 8.91343 7.08734 8.91343H24.4339C24.9098 8.91343 25.3064 8.55086 25.3403 8.07499C25.4876 6.06954 23.9581 4.438 21.9526 4.438H8.0504C7.9371 3.93947 7.7105 3.46359 7.35926 3.06703C6.80408 2.46653 6.01097 2.1153 5.1952 2.1153H3.18974C2.7252 2.1153 2.33997 2.50052 2.33997 2.96506C2.33997 3.4296 2.7252 3.81483 3.18974 3.81483H5.16121C5.51244 3.81483 5.84102 3.96213 6.07895 4.2114C6.31689 4.47199 6.43018 4.81189 6.40752 5.16313Z" fill="white"/>
<path id="Vector_4" d="M24.162 10.613H6.78145C6.30558 10.613 5.92035 10.9755 5.87503 11.4401L5.46714 16.3687C5.30852 18.2949 6.82677 19.9604 8.76424 19.9604H21.3635C23.063 19.9604 24.5586 18.5668 24.6832 16.8673L25.0571 11.5761C25.1024 11.0549 24.6945 10.613 24.162 10.613Z" fill="white"/>
</g>
</g>
</svg>
